<?xml version="1.0" encoding="UTF-8"?>
<svg width="1200pt" height="1200pt" version="1.1" viewBox="0 0 1200 1200" xmlns="http://www.w3.org/2000/svg">
 <g fill="#45dee0">
  <path d="m243.75 1162.5c52.539 0.039062 103.11-19.988 141.37-55.988s61.34-85.254 64.504-137.7-13.816-104.11-47.477-144.45l42.355-42.355-26.512-26.512-42.355 42.355c-34.062-28.406-76.371-45.074-120.66-47.535-44.285-2.457-88.18 9.4219-125.18 33.883-36.996 24.461-65.125 60.195-80.211 101.9-15.082 41.707-16.324 87.168-3.5312 129.63 12.793 42.469 38.934 79.68 74.543 106.12 35.613 26.438 78.797 40.691 123.15 40.648zm0-375c44.754 0 87.676 17.777 119.32 49.426 31.648 31.648 49.426 74.57 49.426 119.32s-17.777 87.676-49.426 119.32c-31.648 31.648-74.57 49.426-119.32 49.426s-87.676-17.777-119.32-49.426c-31.648-31.648-49.426-74.57-49.426-119.32 0.050781-44.738 17.844-87.633 49.48-119.27s74.531-49.43 119.27-49.48z"/>
  <path d="m243.75 450c48.215 0.027344 94.906-16.914 131.89-47.852l42.355 42.355 26.512-26.512-42.355-42.355c29.973-36.051 46.758-81.246 47.59-128.12 0.82812-46.875-14.344-92.637-43.02-129.73-28.672-37.094-69.137-63.305-114.71-74.309-45.574-11-93.535-6.1406-135.98 13.785-42.441 19.922-76.82 53.719-97.469 95.809-20.648 42.094-26.332 89.965-16.109 135.72 10.219 45.758 35.73 86.66 72.324 115.97 36.598 29.305 82.09 45.262 128.97 45.234zm0-375c44.754 0 87.676 17.777 119.32 49.426 31.648 31.648 49.426 74.57 49.426 119.32s-17.777 87.676-49.426 119.32c-31.648 31.648-74.57 49.426-119.32 49.426s-87.676-17.777-119.32-49.426c-31.648-31.648-49.426-74.57-49.426-119.32 0.050781-44.738 17.844-87.633 49.48-119.27s74.531-49.43 119.27-49.48z"/>
  <path d="m806.25 600c0.03125-53.664-20.852-105.23-58.219-143.75-37.371-38.516-88.281-60.949-141.92-62.539s-105.79 17.789-145.38 54.023c-39.582 36.238-63.484 86.473-66.629 140.05-3.1445 53.57 14.715 106.26 49.785 146.88 35.07 40.621 84.594 65.969 138.05 70.668 5.9805 0.58203 12 0.91797 18.055 0.91797s12.074-0.33594 18.055-0.91797c51.34-4.5547 99.121-28.148 133.95-66.145s54.176-87.648 54.25-139.19zm-112.5 135.6c-22.828 18.395-50.559 29.676-79.742 32.438-4.6328 0.39063-9.2812 0.71094-14.008 0.71094s-9.375-0.32031-14.008-0.71094c-29.184-2.7617-56.914-14.043-79.742-32.438v-1.2383c11.555-33.113 30.414-63.203 55.18-88.031l12.059-12.059c3.5156-3.5156 5.4883-8.2812 5.4883-13.254 0-4.9727-1.9727-9.7422-5.4883-13.258-7.0352-7.0312-10.988-16.57-10.988-26.516 0-9.9453 3.9492-19.484 10.98-26.52 7.0352-7.0312 16.574-10.984 26.52-10.984s19.484 3.9531 26.52 10.984c7.0312 7.0352 10.98 16.574 10.98 26.52 0 9.9453-3.9531 19.484-10.988 26.516-3.5156 3.5156-5.4883 8.2852-5.4883 13.258 0 4.9727 1.9727 9.7383 5.4883 13.254l12.059 12.059c24.766 24.828 43.625 54.918 55.18 88.031zm-28.668-115.78-0.44922-0.46875c8.9805-15.258 12.277-33.203 9.3008-50.656-2.9766-17.453-12.031-33.293-25.562-44.711-13.531-11.422-30.664-17.684-48.371-17.684s-34.84 6.2617-48.371 17.684c-13.531 11.418-22.586 27.258-25.562 44.711-2.9766 17.453 0.32031 35.398 9.3008 50.656l-0.44922 0.46875c-26.23 26.488-46.711 58.102-60.168 92.867-29.328-32.48-44.891-75.086-43.402-118.82 1.4883-43.734 19.906-85.184 51.371-115.6 31.469-30.414 73.52-47.418 117.28-47.418s85.812 17.004 117.28 47.418c31.465 30.414 49.883 71.863 51.371 115.6 1.4883 43.738-14.074 86.344-43.402 118.82-13.457-34.766-33.938-66.379-60.168-92.867z"/>
  <path d="m243.75 337.5c24.863 0 48.711-9.8789 66.293-27.457 17.578-17.582 27.457-41.43 27.457-66.293s-9.8789-48.711-27.457-66.293c-17.582-17.578-41.43-27.457-66.293-27.457s-48.711 9.8789-66.293 27.457c-17.578 17.582-27.457 41.43-27.457 66.293 0.03125 24.855 9.918 48.684 27.492 66.258 17.574 17.574 41.402 27.461 66.258 27.492zm0-150c14.918 0 29.227 5.9258 39.773 16.477 10.551 10.547 16.477 24.855 16.477 39.773s-5.9258 29.227-16.477 39.773c-10.547 10.551-24.855 16.477-39.773 16.477s-29.227-5.9258-39.773-16.477c-10.551-10.547-16.477-24.855-16.477-39.773s5.9258-29.227 16.477-39.773c10.547-10.551 24.855-16.477 39.773-16.477z"/>
  <path d="m168.75 1050h150c4.9727 0 9.7422-1.9766 13.258-5.4922 3.5156-3.5156 5.4922-8.2852 5.4922-13.258v-150c0-4.9727-1.9766-9.7422-5.4922-13.258-3.5156-3.5156-8.2852-5.4922-13.258-5.4922h-150c-4.9727 0-9.7422 1.9766-13.258 5.4922-3.5156 3.5156-5.4922 8.2852-5.4922 13.258v150c0 4.9727 1.9766 9.7422 5.4922 13.258 3.5156 3.5156 8.2852 5.4922 13.258 5.4922zm18.75-150h112.5v112.5h-112.5z"/>
  <path d="m972.52 159.38c-3.6094-5.4688-9.7227-8.7578-16.273-8.7578s-12.664 3.2891-16.273 8.7578l-75 131.25c-2.207 3.8203-2.9961 8.2969-2.2266 12.645 0.76953 4.3438 3.0469 8.2773 6.4297 11.109 3.3828 2.832 7.6562 4.3789 12.07 4.3711h150c4.4141 0.007812 8.6875-1.5391 12.07-4.3711 3.3828-2.832 5.6602-6.7656 6.4297-11.109 0.76953-4.3477-0.019531-8.8242-2.2266-12.645zm-58.969 121.88 42.695-74.699 42.695 74.699z"/>
  <path d="m956.25 1162.5c44.352 0.042969 87.535-14.211 123.15-40.648 35.609-26.438 61.75-63.648 74.543-106.12 12.793-42.465 11.551-87.926-3.5312-129.63-15.086-41.707-43.215-77.441-80.211-101.9-37-24.461-80.895-36.34-125.18-33.883-44.285 2.4609-86.594 19.129-120.66 47.535l-42.355-42.355-26.512 26.512 42.355 42.355c-33.66 40.34-50.641 92.012-47.477 144.45s26.238 101.7 64.504 137.7 88.832 56.027 141.37 55.988zm0-375c44.754 0 87.676 17.777 119.32 49.426 31.648 31.648 49.426 74.57 49.426 119.32s-17.777 87.676-49.426 119.32c-31.648 31.648-74.57 49.426-119.32 49.426s-87.676-17.777-119.32-49.426c-31.648-31.648-49.426-74.57-49.426-119.32 0.050781-44.738 17.844-87.633 49.48-119.27s74.531-49.43 119.27-49.48z"/>
  <path d="m945 1065c3.2461 2.4336 7.1914 3.75 11.25 3.75s8.0039-1.3164 11.25-3.75l75-56.25c4.7227-3.543 7.5-9.0977 7.5-15v-75c0-5.9023-2.7773-11.457-7.5-15l-75-56.25c-3.2461-2.4336-7.1914-3.75-11.25-3.75s-8.0039 1.3164-11.25 3.75l-75 56.25c-4.7227 3.543-7.5 9.0977-7.5 15v75c0 5.9023 2.7773 11.457 7.5 15zm-45-136.88 56.25-42.188 56.25 42.188v56.25l-56.25 42.188-56.25-42.188z"/>
  <path d="m187.5 506.25h37.5v37.5h-37.5z"/>
  <path d="m187.5 581.25h37.5v37.5h-37.5z"/>
  <path d="m187.5 656.25h37.5v37.5h-37.5z"/>
  <path d="m1031.2 506.25h37.5v37.5h-37.5z"/>
  <path d="m1031.2 581.25h37.5v37.5h-37.5z"/>
  <path d="m1031.2 656.25h37.5v37.5h-37.5z"/>
  <path d="m506.25 131.25h37.5v37.5h-37.5z"/>
  <path d="m581.25 131.25h37.5v37.5h-37.5z"/>
  <path d="m656.25 131.25h37.5v37.5h-37.5z"/>
  <path d="m506.25 1031.2h37.5v37.5h-37.5z"/>
  <path d="m581.25 1031.2h37.5v37.5h-37.5z"/>
  <path d="m656.25 1031.2h37.5v37.5h-37.5z"/>
  <path d="m956.25 37.5c-49.188 0.003906-96.758 17.59-134.12 49.578-37.363 31.992-62.062 76.285-69.645 124.89-7.582 48.598 2.457 98.309 28.305 140.16l-11.812 76.258c-0.83984 5.4062 0.73047 10.91 4.2891 15.066 3.5625 4.1562 8.7617 6.5508 14.234 6.5508 1.3164 0.003906 2.6328-0.13672 3.918-0.41406l81.32-17.438c26.262 11.781 54.727 17.867 83.512 17.852 54.699 0 107.16-21.73 145.84-60.41 38.68-38.68 60.41-91.141 60.41-145.84s-21.73-107.16-60.41-145.84c-38.68-38.68-91.141-60.41-145.84-60.41zm0 375c-25.34-0.011719-50.344-5.7812-73.125-16.875-2.5391-1.2383-5.332-1.8789-8.1562-1.875-1.3164 0.007812-2.6289 0.14453-3.918 0.41406l-60.805 13.125 8.7383-56.363h-0.003906c0.71875-4.6523-0.33984-9.4062-2.9609-13.312-20.93-31.27-30.809-68.637-28.066-106.16 2.7422-37.523 17.949-73.059 43.203-100.95 25.25-27.895 59.102-46.547 96.172-52.996 37.066-6.4531 75.23-0.32812 108.42 17.395 33.191 17.727 59.508 46.035 74.766 80.43 15.254 34.395 18.578 72.898 9.4453 109.4-9.1367 36.5-30.211 68.898-59.871 92.051-29.66 23.148-66.211 35.723-103.84 35.723z"/>
 </g>
</svg>
