<?xml version="1.0" encoding="UTF-8"?>
<svg width="1200pt" height="1200pt" version="1.1" viewBox="0 0 1200 1200" xmlns="http://www.w3.org/2000/svg">
 <path d="m576.39 1084.8c-9.8945-0.26953-17.703-8.5312-17.434-18.426 0.26953-9.8945 8.5312-17.703 18.426-17.434l0.96484 0.027343c9.8945 0.26953 17.703 8.5312 17.434 18.426-0.26953 9.8945-8.5312 17.703-18.426 17.434zm-52.953-92.469c-9.9336 0-18-8.0664-18-18s8.0664-18 18-18h220.79c9.9336 0 18 8.0664 18 18s-8.0664 18-18 18zm523.93-803.98v160.32c0 9.9336-8.0664 18-18 18h-88.441c-9.9336 0-18-8.0664-18-18v-160.32h-17.73c-9.9336 0-18-8.0664-18-18 0-4.4062 1.5859-8.4492 4.2227-11.578l79.117-111.3c5.7383-8.0664 16.953-9.9492 25.016-4.2109 1.7734 1.2617 3.2461 2.793 4.4062 4.4922l79.754 112.2c5.7383 8.0664 3.8555 19.277-4.2109 25.016-3.1602 2.2539-6.8047 3.332-10.402 3.3164l-17.73 0.070312zm-36 142.32v-160.32c0-9.9336 8.0664-18 18-18h0.93359l-45.156-63.523-45.156 63.523h0.93359c9.9336 0 18 8.0664 18 18v160.32zm-736.26-4.4062v160.32c0 9.9336-8.0664 18-18 18h-88.441c-9.9336 0-18-8.0664-18-18v-160.32h-17.73c-9.9336 0-18-8.0664-18-18 0-4.4062 1.5859-8.4492 4.2227-11.578l79.117-111.3c5.7383-8.0664 16.953-9.9492 25.016-4.2109 1.7734 1.2617 3.2461 2.793 4.4062 4.4922l79.754 112.2c5.7383 8.0664 3.8555 19.277-4.2109 25.016-3.1602 2.2539-6.8047 3.332-10.402 3.3164l-17.73 0.070313zm-36 142.32v-160.32c0-9.9336 8.0664-18 18-18h0.93359l-45.156-63.523-45.156 63.523h0.93359c9.9336 0 18 8.0664 18 18v160.32zm115.1 342.41c9.9336 0 18 8.0664 18 18s-8.0664 18-18 18c-34.938 0-66.602-14.172-89.492-37.062s-37.062-54.555-37.062-89.492 14.172-66.602 37.062-89.492 54.555-37.062 89.492-37.062c34.895 0 66.531 14.172 89.434 37.062 22.961 22.891 37.133 54.555 37.133 89.492 0 9.9336-8.0664 18-18 18-9.9336 0-18-8.0664-18-18 0-25-10.133-47.652-26.52-64.035-16.344-16.383-39.02-26.52-64.051-26.52-25 0-47.652 10.133-64.035 26.52-16.383 16.383-26.52 39.035-26.52 64.035s10.133 47.652 26.52 64.035c16.383 16.383 39.035 26.52 64.035 26.52zm56.594-283.11c6.8867 2.0273 13.648 4.4062 20.211 7.1289 6.6602 2.9766 12.91 5.7695 19.332 9.2852l20.34-20.34c7.0156-7.0156 18.441-7.0156 25.457 0l54.566 54.566c7.0156 7.0156 7.0156 18.441 0 25.457l-20.34 20.34c3.3867 6.2227 6.4766 12.684 9.2422 19.348 2.75 6.5469 5.1445 13.309 7.1562 20.195h28.742c9.9336 0 18 8.0664 18 18v77.176c0 9.9336-8.0664 18-18 18h-28.73c-2.0273 6.875-4.4062 13.621-7.1289 20.184-2.9336 6.6758-5.8125 12.984-9.3125 19.402l20.297 20.281c7.0156 6.9883 7.0586 18.367 0.070313 25.383l-11.043 11.043c1.6875 10.941 2.8633 22.293 3.4727 34.086h182.07c1.3477-26.277 5.5977-50.301 11.863-72.793 5.7812-20.707 13.266-40.027 21.797-58.605-3.1328-1.5039-6.1953-3.0742-9.2109-4.7344l-20.34 20.34c-7.0156 7.0156-18.441 7.0156-25.457 0l-54.512-54.566c-7.0156-6.9883-7.0586-18.367-0.070312-25.383l20.34-20.41c-3.5-6.3789-7.0312-13.48-9.625-20.27-2.5781-6.3203-4.8477-12.77-6.7734-19.277h-28.742c-9.9336 0-18-8.0664-18-18v-77.176c0-9.9336 8.0664-18 18-18h28.742c2.0117-6.832 4.4062-13.551 7.1133-20.113 2.75-6.7188 5.8672-13.195 9.3125-19.473l-20.297-20.281c-7.0156-6.9883-7.0586-18.367-0.070312-25.383l54.582-54.652c7.0156-7.0156 18.441-7.0156 25.457 0l20.34 20.34c6.2344-3.4141 12.684-6.5195 19.305-9.2539 6.8047-2.6094 13.211-5.0586 20.227-7.1445v-28.742c0-9.9336 8.0664-18 18-18h40.211c-17.945-35.645-44.602-66.203-77.16-88.852-38.551-26.816-85.449-42.547-136.06-42.547-65.465 0-124.75 26.336-167.84 68.969-45.594 48.684-70.695 101.85-70.695 169.55l0.29688 17.773 0.042968 0.70703c8.418 1.5039 14.824 8.8594 14.824 17.715v28.73zm96.207 378.12-10.871 10.871c-6.9883 7.0156-18.367 7.0586-25.383 0.070312l-20.422-20.352c-6.3086 3.457-12.742 6.5625-19.262 9.2695-6.832 2.5781-13.211 5.0469-20.27 7.1289v28.758c0 9.9336-8.0664 18-18 18h-77.176c-9.9336 0-18-8.0664-18-18v-28.73c-6.8594-2.0273-13.621-4.4062-20.211-7.1445-6.6172-2.7344-13.082-5.8398-19.332-9.2539l-20.324 20.324c-7.0156 7.0156-18.441 7.0156-25.457 0l-54.582-54.582c-7.0156-7.0156-7.0156-18.441 0-25.457l20.352-20.281c-3.4141-6.2656-6.5195-12.727-9.2695-19.359-2.6094-6.8047-5.0586-13.211-7.1445-20.227h-28.742c-9.9336 0-18-8.0664-18-18v-77.176c0-9.9336 8.0664-18 18-18h28.73c2.0391-6.8867 4.4375-13.633 7.1445-20.195 2.918-6.6484 5.7812-12.941 9.2695-19.348l-20.34-20.34c-7.0156-7.0156-7.0156-18.441 0-25.457l54.652-54.566c7-6.9727 18.355-6.9453 25.344 0.042969l20.383 20.297c6.2773-3.4453 12.727-6.5469 19.305-9.2695 6.5625-2.7227 13.324-5.1016 20.227-7.1289v-28.742c0-9.9336 8.0664-18 18-18h44.418l-0.41016-18.199c0-69.773 29.566-147.35 81.469-195.1 49.605-49.082 117.81-79.426 193.07-79.426 58.168 0 112.17 18.141 156.59 49.039 42.277 29.426 75.941 70.512 96.293 118.57 8.6602 1.3047 15.309 8.7734 15.309 17.789v28.742c6.8867 2.0117 13.648 4.4062 20.211 7.1289 6.6602 2.9609 12.91 5.7695 19.332 9.2695l20.34-20.34c7.0156-7.0156 18.441-7.0156 25.457 0l54.566 54.652c6.9727 7 6.9453 18.355-0.042969 25.344l-20.297 20.383c3.4141 6.2344 6.5195 12.727 9.2852 19.418 2.707 6.5625 5.0898 13.281 7.1133 20.113h28.742c9.9336 0 18 8.0664 18 18v77.176c0 9.9336-8.0664 18-18 18h-28.73c-2.0391 6.9609-4.5938 14.484-7.5391 21.105-2.6641 6.3633-5.6406 12.527-8.8867 18.48l20.352 20.367c6.9727 7 6.9453 18.355-0.042969 25.344l-54.523 54.609c-7.0156 7.0156-18.441 7.0156-25.457 0l-20.34-20.34c-6.3359 3.4727-13.535 7.1016-20.281 9.6367-6.293 2.5664-12.727 4.832-19.262 6.7617v28.742c0 9.9336-8.0664 18-18 18h-77.176c-9.9336 0-18-8.0664-18-18v-20.422c-6.832 15.391-12.828 31.309-17.531 48.176-6.7891 24.363-10.898 51.012-10.898 81.242 0 9.9336-8.0664 18-18 18h-217.16c-9.9336 0-18-8.0664-18-18 0-6.6328-0.19922-13.109-0.58203-19.418zm-116.9-346.36c-8.6602-1.3047-15.309-8.7891-15.309-17.801v-24.691h-41.172v24.691c-0.027344 8.3047-5.8242 15.789-14.273 17.574-9.75 2.082-19.203 5.0586-28.176 8.7734-8.8008 3.6406-17.148 7.9805-24.945 12.926-7.0586 5.457-17.277 4.9453-23.742-1.5156l-17.504-17.504-29.113 29.125 17.488 17.488c5.8125 5.8672 7.0156 15.195 2.3828 22.422-5.0742 7.8945-10.445 17.531-13.789 26.305-3.6016 8.6758-6.4922 17.758-8.5625 27.129-1.3164 8.6602-8.7891 15.293-17.801 15.293h-24.676v41.172h24.691c8.293 0.015625 15.746 5.7812 17.574 14.203 1.957 9.0703 4.9883 19.785 8.7891 28.246 3.7852 9.1406 8.3906 17.871 13.648 26.078 4.6211 6.9727 3.8281 16.484-2.3242 22.621l-17.418 17.418 29.156 29.156 17.461-17.461c5.8672-5.8125 15.195-7.0156 22.422-2.3828 8.2617 5.3438 17.078 9.9766 26.277 13.789 8.6875 3.6016 17.887 6.5039 27.426 8.6172 8.5195 1.418 15.008 8.8281 15.008 17.746v24.676h41.172v-24.691c0.027344-8.3047 5.8242-15.789 14.273-17.574 9.0703-1.957 19.758-5.0039 28.219-8.7891 8.7891-3.6406 17.035-7.9102 24.648-12.684 7.0586-5.6992 17.461-5.2578 24.008 1.2891l17.488 17.488 17.461-17.461c-2.7227-12.613-6.1367-24.547-10.105-35.945-2-5.7383-0.96484-11.367 2.3242-16.301 4.9023-7.6953 10.121-17.121 13.367-25.641 3.5859-8.6602 6.4766-17.746 8.5469-27.113 1.3164-8.6602 8.7891-15.293 17.801-15.293h24.676v-41.172h-24.691c-8.3047-0.027343-15.789-5.8242-17.574-14.273-2.082-9.75-5.0586-19.191-8.7734-28.164-3.6016-8.7578-8.0078-17.18-13.098-25.199-5.2734-7.043-4.7188-17.105 1.6875-23.512l17.461-17.461-29.113-29.113-17.461 17.461c-5.8672 5.8125-15.195 7.0156-22.422 2.3828-8.0938-5.2148-16.598-9.7656-25.398-13.465-9.6094-3.6562-17.902-6.6328-28.02-8.8711zm455.67 126.04c9.9336 0 18 8.0664 18 18s-8.0664 18-18 18c-34.895 0-66.531-14.172-89.434-37.062-22.961-22.891-37.133-54.555-37.133-89.492s14.172-66.602 37.062-89.492c22.891-22.891 54.555-37.062 89.504-37.062 34.938 0 66.602 14.172 89.492 37.062s37.062 54.555 37.062 89.492c0 9.9336-8.0664 18-18 18-9.9336 0-18-8.0664-18-18 0-25-10.133-47.652-26.52-64.035-16.383-16.383-39.035-26.52-64.035-26.52-25.016 0-47.664 10.133-64.051 26.52-16.383 16.383-26.52 39.035-26.52 64.035s10.133 47.652 26.52 64.035c16.344 16.383 39.02 26.52 64.051 26.52zm63.016-242.82c-8.6602-3.5859-17.746-6.4766-27.129-8.5469-8.6602-1.3047-15.309-8.7891-15.309-17.801v-24.691h-41.172v24.691c-0.015625 8.293-5.7812 15.746-14.203 17.574-9.5938 2.0703-18.793 4.918-27.426 8.418-9.3398 4.1797-17.293 7.9375-26.008 13.449-7.043 5.2734-17.105 4.707-23.5-1.6875l-17.461-17.461-29.156 29.156 17.191 17.191c6.0664 5.8125 7.3828 15.309 2.6797 22.648-5.3281 8.2773-9.9766 17.094-13.805 26.32-3.5703 8.5898-6.4648 17.676-8.5469 27.113-1.3164 8.6602-8.7891 15.293-17.801 15.293h-24.676v41.172h24.691c8.293 0.015624 15.746 5.7812 17.574 14.203 2.0703 9.5938 4.918 18.809 8.418 27.441 4.1797 9.3398 7.9375 17.293 13.449 26.008 5.2734 7.043 4.707 17.105-1.6875 23.5l-17.488 17.488 29.113 29.125 17.504-17.504c5.8672-5.8125 15.195-7.0156 22.422-2.3828 7.8945 5.0898 17.531 10.461 26.305 13.805 8.6602 3.5859 17.746 6.4766 27.113 8.5469 8.6602 1.3164 15.293 8.7891 15.293 17.801v24.676h41.172v-24.691c0.027344-8.3047 5.8242-15.789 14.273-17.574 9.5391-2.0391 18.68-4.875 27.355-8.4062 9.2109-4.0664 17.219-7.8672 25.781-13.293 7.0586-5.457 17.277-4.9453 23.742 1.5156l17.461 17.461 29.156-29.156-17.191-17.191c-6.0664-5.8125-7.3828-15.309-2.6797-22.648 5.2031-8.0938 9.75-16.609 13.449-25.414 3.6289-9.668 6.6328-17.828 8.8867-28.02 1.3164-8.6602 8.7891-15.293 17.801-15.293h24.676v-41.172h-24.691c-8.3047-0.027344-15.789-5.8242-17.574-14.273-2.1133-9.8359-5.0898-19.305-8.7578-28.203-3.6016-8.7031-8.0078-17.137-13.098-25.172-5.2734-7.043-4.707-17.105 1.6875-23.5l17.488-17.488-29.125-29.113-17.488 17.488c-5.8672 5.8125-15.195 7.0156-22.422 2.3828-7.8945-5.0898-17.531-10.445-26.293-13.789zm-459.23 31.254c0 9.9336-8.0664 18-18 18s-18-8.0664-18-18c0-60.336 24.477-115 64.02-154.55s94.211-64.02 154.55-64.02c9.9336 0 18 8.0664 18 18s-8.0664 18-18 18c-50.402 0-96.066 20.453-129.09 53.477-33.023 33.023-53.477 78.691-53.477 129.09zm274.96 567.13h-181.41c1.0469 11.422 4.2227 22.449 9.2539 32.512 7.4141 14.824 18.906 27.652 33.578 36.707 14.586 9.0156 31.211 13.52 47.879 13.52 16.652 0 33.277-4.5078 47.863-13.52 14.668-9.0586 26.18-21.883 33.59-36.707 5.0312-10.062 8.1914-21.09 9.2422-32.512zm-199.28-36h217.15c9.1992 0.070313 17.051 7.1289 17.859 16.457 2.1406 23.895-2.5781 47.41-12.91 68.074-10.359 20.707-26.375 38.594-46.801 51.195-20.508 12.684-43.668 19.02-66.715 19.02-23.059 0-46.207-6.3359-66.727-19.02-20.422-12.602-36.441-30.488-46.785-51.195-10.105-20.184-14.84-43.074-13.066-66.375 0-10.02 7.9375-18.156 18-18.156zm94.648 79.625c-9.9336 0-18-8.0664-18-18 0-9.9336 8.0664-18 18-18h70.883c9.9336 0 18 8.0664 18 18 0 9.9336-8.0664 18-18 18z" fill="#45dee0"/>
</svg>
