<?xml version="1.0" encoding="UTF-8"?>
<svg width="1200pt" height="1200pt" version="1.1" viewBox="0 0 1200 1200" xmlns="http://www.w3.org/2000/svg">
 <path d="m818.12 645.93c7.1641-2.75 11.875-9.6367 11.875-17.301v-57.25c0-7.6758-4.7266-14.551-11.875-17.301l-26.199-10.086c-4.0625-13.926-9.625-27.352-16.625-40.086l11.398-25.676c3.1133-7.0117 1.5859-15.211-3.8359-20.637l-40.477-40.477c-5.4258-5.4258-13.625-6.9375-20.637-3.8359l-25.688 11.414c-12.738-7-26.148-12.562-40.074-16.613l-10.086-26.211c-2.75-7.1641-9.6367-11.875-17.301-11.875h-57.238c-7.6758 0-14.551 4.7266-17.301 11.875l-10.086 26.211c-13.926 4.0508-27.336 9.625-40.074 16.613l-25.688-11.414c-7.0117-3.1133-15.211-1.5859-20.637 3.8359l-40.477 40.477c-5.4258 5.4258-6.9492 13.625-3.8359 20.637l11.398 25.676c-6.9883 12.727-12.562 26.148-16.613 40.074l-26.199 10.086c-7.1641 2.75-11.875 9.6367-11.875 17.301v57.238c0 7.6758 4.7266 14.551 11.875 17.301l26.199 10.086c4.0625 13.926 9.625 27.352 16.625 40.086l-11.398 25.676c-3.1133 7.0117-1.5859 15.211 3.8359 20.637l40.477 40.477c5.4258 5.4258 13.625 6.9492 20.637 3.8359l25.688-11.414c12.738 6.9883 26.148 12.562 40.074 16.613l10.086 26.211c2.75 7.1641 9.6367 11.875 17.301 11.875h57.238c7.6758 0 14.551-4.7266 17.301-11.875l10.086-26.199c13.926-4.0625 27.352-9.625 40.086-16.625l25.676 11.398c7.0117 3.1133 15.211 1.5859 20.637-3.8359l40.477-40.477c5.4258-5.4258 6.9492-13.625 3.8359-20.637l-11.414-25.688c7-12.738 12.562-26.148 16.613-40.074zm-48.363-21.125c-5.6992 2.1992-9.9609 7.0625-11.375 13.012-3.9883 16.75-10.602 32.699-19.664 47.414-3.1992 5.1992-3.6367 11.664-1.1641 17.25l10.086 22.699-22.461 22.477-22.699-10.074c-5.5859-2.4883-12.051-2.0508-17.25 1.1641-14.711 9.0625-30.664 15.676-47.426 19.664-5.9492 1.4141-10.812 5.6758-13.012 11.375l-8.9141 23.148h-31.773l-8.9141-23.164c-2.1992-5.6992-7.0625-9.9609-13.012-11.375-16.762-3.9883-32.711-10.602-47.414-19.664-5.1992-3.1992-11.648-3.6367-17.25-1.1641l-22.699 10.086-22.477-22.461 10.074-22.699c2.4883-5.5859 2.0508-12.039-1.1641-17.25-9.0625-14.711-15.676-30.664-19.664-47.426-1.4141-5.9492-5.6758-10.812-11.375-13.012l-23.148-8.9141v-31.773l23.164-8.9141c5.6992-2.1992 9.9609-7.0625 11.375-13.012 3.9883-16.762 10.602-32.711 19.664-47.426 3.2109-5.1992 3.6367-11.664 1.1641-17.25l-10.086-22.699 22.477-22.477 22.699 10.086c5.5859 2.4883 12.039 2.0508 17.25-1.1641 14.711-9.0625 30.664-15.676 47.414-19.664 5.9492-1.4141 10.812-5.6758 13.012-11.375l8.9141-23.164h31.773l8.9141 23.164c2.1992 5.6992 7.0625 9.9609 13.012 11.375 16.75 3.9883 32.699 10.602 47.414 19.664 5.1992 3.1992 11.664 3.6367 17.25 1.1641l22.699-10.086 22.477 22.477-10.074 22.699c-2.4883 5.5859-2.0508 12.039 1.1641 17.25 9.0625 14.711 15.676 30.664 19.664 47.426 1.4141 5.9492 5.6758 10.812 11.375 13.012l23.148 8.9141v31.773zm-169.76-143.16c-65.262 0-118.36 53.102-118.36 118.36s53.102 118.36 118.36 118.36 118.36-53.102 118.36-118.36-53.102-118.36-118.36-118.36zm0 199.64c-44.812 0-81.273-36.461-81.273-81.273s36.461-81.273 81.273-81.273 81.273 36.461 81.273 81.273-36.461 81.273-81.273 81.273zm156.06-511.91c3.875-9.4766 14.711-14.012 24.188-10.137 83.363 34.125 155.46 91.637 207.56 164.64l1.4258-20.488c0.71094-10.211 9.5625-17.977 19.789-17.211 10.211 0.71094 17.926 9.5625 17.211 19.773l-6.0234 86.625c-0.42578 6.1641-3.8867 11.699-9.2383 14.773-2.8633 1.6484-6.0508 2.4766-9.25 2.4766-2.7891 0-5.5859-0.625-8.1641-1.8984l-70.539-34.613c-9.1875-4.5117-12.988-15.613-8.4766-24.812 4.5117-9.1875 15.613-13 24.812-8.4766l22.188 10.887c-48.324-69.977-116.36-125.06-195.34-157.4-9.4844-3.8359-14.023-14.664-10.148-24.137zm-582.43 218.54c40.148-80.637 102.79-148.32 179.43-194.94l-20.324-2.9258c-10.137-1.4609-17.176-10.852-15.711-20.988 1.4609-10.137 10.863-17.164 20.988-15.711l85.949 12.363c6.1133 0.875 11.375 4.7383 14.062 10.301 2.6758 5.5625 2.4141 12.086-0.69922 17.414l-39.688 67.812c-3.4492 5.8867-9.6484 9.1758-16.012 9.1758-3.1875 0-6.3984-0.82422-9.3516-2.5391-8.8359-5.1758-11.812-16.523-6.6367-25.363l12.488-21.336c-73.336 43.062-133.26 106.88-171.3 183.26-3.2383 6.5117-9.8008 10.289-16.613 10.289-2.7734 0-5.6016-0.625-8.25-1.9492-9.1523-4.5664-12.891-15.703-8.3281-24.867zm270.3 642.74c-2.9375 7.1758-9.8633 11.523-17.164 11.523-2.3359 0-4.7109-0.44922-7.0117-1.3867-83.363-34.125-155.46-91.637-207.56-164.64l-1.4258 20.488c-0.67578 9.7734-8.8242 17.25-18.477 17.25-0.4375 0-0.86328-0.011719-1.3008-0.050781-10.211-0.71094-17.926-9.5625-17.211-19.773l6.0234-86.625c0.42578-6.1641 3.8867-11.699 9.2383-14.773 5.3516-3.0859 11.875-3.3008 17.426-0.57422l70.539 34.613c9.1875 4.5117 12.988 15.613 8.4766 24.812-4.5117 9.1875-15.625 12.988-24.812 8.4766l-22.188-10.887c48.336 69.977 116.36 125.06 195.34 157.4 9.4492 3.8438 13.988 14.672 10.113 24.145zm578.27-210.4c-41.688 79.852-105.61 146.31-183.14 191.45l20.262 3.3125c10.102 1.6484 16.961 11.188 15.312 21.289-1.4883 9.0859-9.3516 15.551-18.273 15.551-0.98828 0-2-0.074219-3.0117-0.25l-85.699-14.012c-6.0859-1-11.289-4.9609-13.863-10.574-2.5742-5.6133-2.1875-12.137 1.0391-17.398l40.988-67.039c5.3359-8.7383 16.75-11.488 25.488-6.1484 8.7383 5.3359 11.488 16.75 6.1484 25.488l-12.898 21.086c74.148-41.648 135.29-104.3 174.79-179.94 4.7383-9.0742 15.938-12.586 25.012-7.8516 9.0703 4.7578 12.582 15.961 7.8438 25.035zm-560.1-493.91h275.76c5.2617 0 10.273-2.2383 13.789-6.1484 3.5117-3.9141 5.1992-9.1367 4.6484-14.363-6.25-58.438-43.824-106.35-95.012-127.95 16.836-16.148 27.352-38.836 27.352-63.949 0-48.887-39.773-88.664-88.664-88.664-48.887 0-88.664 39.773-88.664 88.664 0 25.113 10.512 47.812 27.352 63.949-51.188 21.602-88.762 69.5-95.012 127.95-0.5625 5.2266 1.125 10.449 4.6484 14.363 3.5234 3.9102 8.5391 6.1484 13.801 6.1484zm137.89-264c28.438 0 51.574 23.137 51.574 51.574s-23.137 51.578-51.574 51.578-51.574-23.137-51.574-51.574c0-28.441 23.137-51.578 51.574-51.578zm0 140.24c54.449 0 100.91 36.051 115.45 86.676h-230.89c14.523-50.625 60.988-86.676 115.44-86.676zm574.65 527.46c-6.25-58.438-43.824-106.35-95.012-127.95 16.836-16.148 27.352-38.836 27.352-63.949 0-48.887-39.773-88.664-88.664-88.664-48.887 0-88.664 39.773-88.664 88.664 0 25.113 10.512 47.812 27.352 63.949-51.188 21.602-88.762 69.5-95.012 127.95-0.5625 5.2266 1.125 10.449 4.6484 14.363 3.5117 3.9141 8.5234 6.1484 13.789 6.1484h275.76c5.2617 0 10.273-2.2383 13.789-6.1484 3.5352-3.9102 5.2227-9.1367 4.6602-14.363zm-207.89-191.9c0-28.438 23.137-51.574 51.574-51.574s51.574 23.137 51.574 51.574-23.137 51.574-51.574 51.574-51.574-23.137-51.574-51.574zm-63.875 175.34c14.523-50.625 61-86.676 115.45-86.676 54.449 0 100.91 36.051 115.45 86.676zm-569.55 30.926c3.5117-3.9141 5.1992-9.1367 4.6484-14.363-6.25-58.438-43.824-106.35-95.012-127.95 16.836-16.148 27.352-38.836 27.352-63.949 0-48.887-39.773-88.664-88.664-88.664-48.887 0-88.664 39.773-88.664 88.664 0 25.113 10.512 47.812 27.352 63.949-51.188 21.586-88.762 69.5-95.012 127.95-0.5625 5.2383 1.125 10.449 4.6484 14.363 3.5234 3.9141 8.5234 6.1484 13.789 6.1484h275.76c5.2773 0.003906 10.289-2.2344 13.801-6.1484zm-151.67-257.85c28.438 0 51.574 23.137 51.574 51.574s-23.137 51.574-51.574 51.574-51.574-23.137-51.574-51.574c-0.003906-28.438 23.137-51.574 51.574-51.574zm-115.44 226.92c14.523-50.625 60.988-86.676 115.45-86.676 54.449 0 100.91 36.051 115.45 86.676zm595.09 312.84c16.836-16.148 27.352-38.836 27.352-63.961 0-48.887-39.773-88.664-88.664-88.664-48.887 0-88.664 39.773-88.664 88.664 0 25.113 10.512 47.812 27.352 63.949-51.188 21.602-88.762 69.5-95.012 127.95-0.5625 5.2266 1.125 10.449 4.6484 14.363 3.5117 3.9141 8.5234 6.1484 13.789 6.1484h275.76c5.2617 0 10.273-2.2383 13.789-6.1484 3.5117-3.9141 5.1992-9.1367 4.6484-14.363-6.25-58.438-43.812-106.35-95-127.94zm-112.89-63.965c0-28.438 23.137-51.574 51.574-51.574s51.574 23.137 51.574 51.574c0 28.426-23.113 51.551-51.539 51.574h-0.050781-0.050781c-28.395-0.023437-51.508-23.148-51.508-51.574zm-63.875 175.34c14.523-50.613 60.961-86.664 115.4-86.676h0.050781 0.050781c54.426 0.023438 100.88 36.074 115.4 86.676z" fill="#45dee0"/>
</svg>
