<?xml version="1.0" encoding="UTF-8"?>
<svg width="1200pt" height="1200pt" version="1.1" viewBox="0 0 1200 1200" xmlns="http://www.w3.org/2000/svg">
 <path d="m1159.2 216h-1118.4c-19.199 0-34.801 15.602-34.801 34.801v698.4c0 19.199 15.602 34.801 34.801 34.801h1118.4c19.199 0 34.801-15.602 34.801-34.801v-698.4c0-19.199-15.602-34.801-34.801-34.801zm-40.801 69.602c-6 18-18 34.801-33.602 46.801l-440.4 356.4c-25.199 20.398-62.398 20.398-87.602 0l-441.6-356.4c-15.602-12-26.398-28.801-33.602-46.801zm-1042.8 104.4 259.2 210-259.2 210zm6 524.4c6-18 18-34.801 32.398-46.801l276-223.2 122.4 99.602c51.602 42 124.8 42 175.2 0l122.4-98.398 276 223.2c15.602 12 26.398 28.801 33.602 46.801zm1042.8-104.4-259.2-210 259.2-210z" fill="#fff"/>
</svg>
