<?xml version="1.0" encoding="UTF-8"?>
<svg width="1200pt" height="1200pt" version="1.1" viewBox="0 0 1200 1200" xmlns="http://www.w3.org/2000/svg">
 <g fill="#45dee0">
  <path d="m330.61 366.12-144.49 260.82 413.88 451.84 415.1-451.84-144.49-260.82zm464.08 73.473-51.43 128.57-79.594-128.57zm-126.12 146.94h-138.37l68.57-110.2zm-132.24-146.94-79.594 127.35-50.203-127.35zm-189.8 48.977 39.184 97.961h-93.062zm-33.062 171.43h100.41l77.145 194.7zm286.53 268.16-106.53-268.16h213.06zm108.98-73.469 77.145-194.7h100.41zm106.53-268.16 37.961-96.734 52.652 96.734z"/>
  <path d="m563.27 121.22h73.469v171.43h-73.469z"/>
  <path d="m1068.2 209.18 50.871 53.008-124.57 119.55-50.871-53.008z"/>
  <path d="m131.29 209.67 124.55 119.56-50.879 53-124.55-119.56z"/>
 </g>
</svg>
