<?xml version="1.0" encoding="UTF-8"?>
<svg width="1200pt" height="1200pt" version="1.1" viewBox="0 0 1200 1200" xmlns="http://www.w3.org/2000/svg">
 <g fill="#45dee0">
  <path d="m1106.2 543.75h-3.75c-13.219-113.79-64.484-219.77-145.48-300.77s-186.98-132.27-300.77-145.48v-3.75c0-20.098-10.723-38.664-28.125-48.715-17.402-10.047-38.848-10.047-56.25 0-17.402 10.051-28.125 28.617-28.125 48.715v3.75c-113.79 13.219-219.77 64.484-300.77 145.48s-132.27 186.98-145.48 300.77h-3.75c-20.098 0-38.664 10.723-48.715 28.125-10.047 17.402-10.047 38.848 0 56.25 10.051 17.402 28.617 28.125 48.715 28.125h3.75c13.219 113.79 64.484 219.77 145.48 300.77s186.98 132.27 300.77 145.48v3.75c0 20.098 10.723 38.664 28.125 48.715 17.402 10.047 38.848 10.047 56.25 0 17.402-10.051 28.125-28.617 28.125-48.715v-3.75c113.79-13.219 219.77-64.484 300.77-145.48s132.27-186.98 145.48-300.77h3.75c20.098 0 38.664-10.723 48.715-28.125 10.047-17.402 10.047-38.848 0-56.25-10.051-17.402-28.617-28.125-48.715-28.125zm-41.438 0h-37.5c-12.219-94.113-55.246-181.54-122.37-248.63s-154.57-110.07-248.69-122.25v-37.5c103.79 13.012 200.29 60.215 274.27 134.16 73.98 73.949 121.23 170.43 134.29 274.21zm-75 112.5c-12.027 84.164-51.051 162.15-111.2 222.23-60.152 60.082-138.18 99.02-222.36 110.95 0-20.098-10.723-38.664-28.125-48.715-17.402-10.047-38.848-10.047-56.25 0-17.402 10.051-28.125 28.617-28.125 48.715-84.109-12.008-162.05-50.977-222.13-111.05-60.078-60.078-99.047-138.02-111.05-222.13 20.098 0 38.664-10.723 48.715-28.125 10.047-17.402 10.047-38.848 0-56.25-10.051-17.402-28.617-28.125-48.715-28.125 12.008-84.109 50.977-162.05 111.05-222.13 60.078-60.078 138.02-99.047 222.13-111.05 0 20.098 10.723 38.664 28.125 48.715 17.402 10.047 38.848 10.047 56.25 0 17.402-10.051 28.125-28.617 28.125-48.715 84.109 12.008 162.05 50.977 222.13 111.05 60.078 60.078 99.047 138.02 111.05 222.13-20.098 0-38.664 10.723-48.715 28.125-10.047 17.402-10.047 38.848 0 56.25 10.051 17.402 28.617 28.125 48.715 28.125zm-408.56-562.5c0-6.6992 3.5742-12.887 9.375-16.238 5.8008-3.3477 12.949-3.3477 18.75 0 5.8008 3.3516 9.375 9.5391 9.375 16.238v112.5c0 6.6992-3.5742 12.887-9.375 16.238-5.8008 3.3477-12.949 3.3477-18.75 0-5.8008-3.3516-9.375-9.5391-9.375-16.238zm-37.5 41.438v37.5c-94.113 12.219-181.54 55.246-248.63 122.37s-110.07 154.57-122.25 248.69h-37.5c13.012-103.79 60.215-200.29 134.16-274.27 73.949-73.98 170.43-121.23 274.21-134.29zm-468.75 464.81c0-4.9727 1.9766-9.7422 5.4922-13.258 3.5156-3.5156 8.2852-5.4922 13.258-5.4922h112.5c6.6992 0 12.887 3.5742 16.238 9.375 3.3477 5.8008 3.3477 12.949 0 18.75-3.3516 5.8008-9.5391 9.375-16.238 9.375h-112.5c-4.9727 0-9.7422-1.9766-13.258-5.4922-3.5156-3.5156-5.4922-8.2852-5.4922-13.258zm60.188 56.25h37.5c12.219 94.113 55.246 181.54 122.37 248.63s154.57 110.07 248.69 122.25v37.5c-103.79-13.012-200.29-60.215-274.27-134.16-73.98-73.949-121.23-170.43-134.29-274.21zm483.56 450c0 6.6992-3.5742 12.887-9.375 16.238-5.8008 3.3477-12.949 3.3477-18.75 0-5.8008-3.3516-9.375-9.5391-9.375-16.238v-112.5c0-6.6992 3.5742-12.887 9.375-16.238 5.8008-3.3477 12.949-3.3477 18.75 0 5.8008 3.3516 9.375 9.5391 9.375 16.238zm37.5-41.438v-37.5c94.113-12.219 181.54-55.246 248.63-122.37s110.07-154.57 122.25-248.69h37.5c-13.012 103.79-60.215 200.29-134.16 274.27-73.949 73.98-170.43 121.23-274.21 134.29zm450-446.06h-112.5c-6.6992 0-12.887-3.5742-16.238-9.375-3.3477-5.8008-3.3477-12.949 0-18.75 3.3516-5.8008 9.5391-9.375 16.238-9.375h112.5c6.6992 0 12.887 3.5742 16.238 9.375 3.3477 5.8008 3.3477 12.949 0 18.75-3.3516 5.8008-9.5391 9.375-16.238 9.375z"/>
  <path d="m600 487.5c19.891 0 38.969-7.9023 53.031-21.969 14.066-14.062 21.969-33.141 21.969-53.031s-7.9023-38.969-21.969-53.031c-14.062-14.066-33.141-21.969-53.031-21.969s-38.969 7.9023-53.031 21.969c-14.066 14.062-21.969 33.141-21.969 53.031s7.9023 38.969 21.969 53.031c14.062 14.066 33.141 21.969 53.031 21.969zm0-112.5c9.9453 0 19.484 3.9492 26.516 10.984 7.0352 7.0312 10.984 16.57 10.984 26.516s-3.9492 19.484-10.984 26.516c-7.0312 7.0352-16.57 10.984-26.516 10.984s-19.484-3.9492-26.516-10.984c-7.0352-7.0312-10.984-16.57-10.984-26.516s3.9492-19.484 10.984-26.516c7.0312-7.0352 16.57-10.984 26.516-10.984z"/>
  <path d="m787.5 525c14.918 0 29.227-5.9258 39.773-16.477 10.551-10.547 16.477-24.855 16.477-39.773s-5.9258-29.227-16.477-39.773c-10.547-10.551-24.855-16.477-39.773-16.477s-29.227 5.9258-39.773 16.477c-10.551 10.547-16.477 24.855-16.477 39.773s5.9258 29.227 16.477 39.773c10.547 10.551 24.855 16.477 39.773 16.477zm0-75c4.9727 0 9.7422 1.9766 13.258 5.4922 3.5156 3.5156 5.4922 8.2852 5.4922 13.258s-1.9766 9.7422-5.4922 13.258c-3.5156 3.5156-8.2852 5.4922-13.258 5.4922s-9.7422-1.9766-13.258-5.4922c-3.5156-3.5156-5.4922-8.2852-5.4922-13.258s1.9766-9.7422 5.4922-13.258c3.5156-3.5156 8.2852-5.4922 13.258-5.4922z"/>
  <path d="m787.5 543.75c-29.508 0-57.293 13.895-75 37.5-13.078-29.051-36.887-51.914-66.441-63.809-29.555-11.891-62.562-11.891-92.117 0-29.555 11.895-53.363 34.758-66.441 63.809-15.094-20.465-37.855-33.922-63.062-37.281-25.203-3.3594-50.695 3.6641-70.621 19.461-19.93 15.797-32.586 39.012-35.066 64.32l-18.75 158.44c-0.64844 5.293 0.98828 10.613 4.5 14.625 3.7656 3.75 8.9453 5.7266 14.25 5.4375h135.56l-4.3125 35.25c-0.64844 5.293 0.98828 10.613 4.5 14.625 3.5977 4.0938 8.8008 6.4219 14.25 6.375h262.5c5.3867-0.007812 10.508-2.3281 14.062-6.375 3.5117-4.0117 5.1484-9.332 4.5-14.625l-4.125-35.25h135.56c5.3867-0.007812 10.508-2.3281 14.062-6.375 3.5117-4.0117 5.1484-9.332 4.5-14.625l-18.75-158.44c-2.6328-22.938-13.633-44.094-30.898-59.422-17.266-15.328-39.578-23.746-62.664-23.641zm-447.56 225 16.312-137.44c0-20.098 10.723-38.664 28.125-48.715 17.402-10.047 38.848-10.047 56.25 0 17.402 10.051 28.125 28.617 28.125 48.715l3.375 27.562-13.312 109.88zm150 56.25 24.562-204.75c3.2422-28.227 20.211-53.035 45.34-66.297 25.133-13.258 55.188-13.258 80.32 0 25.129 13.262 42.098 38.07 45.34 66.297l24.562 204.75zm251.25-56.25-13.312-110.06 3.375-27.562c0-20.098 10.723-38.664 28.125-48.715 17.402-10.047 38.848-10.047 56.25 0 17.402 10.051 28.125 28.617 28.125 48.715l16.312 137.62z"/>
  <path d="m412.5 525c14.918 0 29.227-5.9258 39.773-16.477 10.551-10.547 16.477-24.855 16.477-39.773s-5.9258-29.227-16.477-39.773c-10.547-10.551-24.855-16.477-39.773-16.477s-29.227 5.9258-39.773 16.477c-10.551 10.547-16.477 24.855-16.477 39.773s5.9258 29.227 16.477 39.773c10.547 10.551 24.855 16.477 39.773 16.477zm0-75c4.9727 0 9.7422 1.9766 13.258 5.4922 3.5156 3.5156 5.4922 8.2852 5.4922 13.258s-1.9766 9.7422-5.4922 13.258c-3.5156 3.5156-8.2852 5.4922-13.258 5.4922s-9.7422-1.9766-13.258-5.4922c-3.5156-3.5156-5.4922-8.2852-5.4922-13.258s1.9766-9.7422 5.4922-13.258c3.5156-3.5156 8.2852-5.4922 13.258-5.4922z"/>
 </g>
</svg>
