<?xml version="1.0" encoding="UTF-8"?>
<svg width="1200pt" height="1200pt" version="1.1" viewBox="0 0 1200 1200" xmlns="http://www.w3.org/2000/svg">
 <path d="m544.84 1084c-9.8945-0.26953-17.703-8.5312-17.434-18.426 0.26953-9.8945 8.5312-17.703 18.426-17.434l0.92188 0.027344c9.8945 0.26953 17.703 8.5312 17.434 18.426-0.26953 9.8945-8.5312 17.703-18.426 17.434zm156.67-438.57c-9.0703 3.9961-19.688-0.12891-23.684-9.1992-3.9961-9.0703 0.12891-19.688 9.1992-23.684 7.4258-3.2891 13.168-9.0156 16.496-15.816 3.375-6.9297 4.4062-14.996 2.4805-22.891-1.9141-7.8672-6.5469-14.512-12.672-19.035-6.1797-4.5508-13.961-7.0156-22.082-6.5352-9.2852 0.55469-18.027 3.6016-23.883 9.1289-4.4219 4.168-7.2852 10.289-7.2852 18.355v266.05c0 9.9336-8.0664 18-18 18s-18-8.0664-18-18v-266.05c0-18.879 7.2852-33.746 18.68-44.488 12.246-11.551 29.141-17.828 46.391-18.852 16.754-1.0078 32.711 4.0547 45.41 13.422 12.742 9.3984 22.336 23.188 26.305 39.559 3.9844 16.312 1.8438 32.926-5.1445 47.141-7.0156 14.215-18.863 26.105-34.215 32.895zm-188.55-32.883c9.0703 3.9961 13.195 14.613 9.1992 23.684-3.9961 9.0703-14.613 13.195-23.684 9.1992-15.352-6.7891-27.199-18.68-34.188-32.91-7.0156-14.188-9.1719-30.812-5.1875-47.125 3.9961-16.383 13.578-30.16 26.32-39.559 12.715-9.3672 28.688-14.43 45.41-13.422 17.262 1.0195 34.156 7.3125 46.391 18.852 11.395 10.742 18.68 25.609 18.68 44.488v266.05c0 9.9336-8.0664 18-18 18s-18-8.0664-18-18v-266.05c0-8.0664-2.8633-14.188-7.2852-18.355-5.8555-5.5273-14.613-8.5742-23.883-9.1289-8.1211-0.48047-15.902 1.9844-22.082 6.5352-6.1367 4.5195-10.773 11.184-12.684 19.035-1.9258 7.8945-0.87891 15.945 2.4961 22.82 3.332 6.875 9.0703 12.602 16.496 15.887zm285.37 312.66c0 9.9336-8.0664 18-18 18s-18-8.0664-18-18v-108.45c0-8.6445 6.1094-15.875 14.246-17.602 23.996-7.1445 46.844-17.094 68.117-29.367 22.023-12.715 42.406-28.035 60.648-45.426 6.1523-5.8672 15.406-6.4922 22.223-2.0117l77.555 44.773 76.988-133.31-78.406-45.254c-7.0586-4.0547-10.305-12.203-8.4883-19.758 2.8633-11.863 5.1172-24.277 6.6328-37.105 1.4727-12.344 2.2266-25.059 2.2266-38.012 0-12.898-0.76562-25.57-2.2266-37.887-1.5312-12.898-3.7852-25.355-6.6602-37.246-1.9844-8.2344 2.0547-16.539 9.2969-20.211l77.629-44.789-76.977-133.3-78.465 45.312c-7.2578 4.1953-16.242 2.75-21.84-2.9922-18.141-17.234-38.367-32.387-60.207-45-21.672-12.516-44.914-22.562-69.277-29.691-7.8516-2.2695-12.941-9.4375-12.941-17.219l-0.070313-90.496h-58.906v117.51c0 9.9336-8.0664 18-18 18-9.9336 0-18-8.0664-18-18v-135.51c0-9.9336 8.0664-18 18-18h94.906c9.9336 0 18 8.0664 18 18v95.359c22.578 7.5547 44.094 17.32 64.289 28.984 20.523 11.848 39.785 25.766 57.473 41.398l82.617-47.707c8.5742-4.9609 19.574-2.0391 24.535 6.5352l94.906 164.37c4.918 8.6445 1.9688 19.617-6.6055 24.535l-82.559 47.621c1.9258 9.4258 3.457 18.879 4.5781 28.316 1.6445 13.902 2.5078 27.977 2.5078 42.109 0 14.203-0.85156 28.316-2.5078 42.238-1.1211 9.3984-2.6523 18.809-4.5625 28.176l82.617 47.637c8.5742 4.9609 11.496 15.961 6.5352 24.535l-94.906 164.36c-4.9609 8.5195-15.902 11.438-24.465 6.5352l-82.617-47.68c-17.676 15.633-36.949 29.539-57.473 41.387-20.27 11.691-41.812 21.488-64.359 29.055v95.301zm-360.66 0c0 9.9336-8.0664 18-18 18s-18-8.0664-18-18v-95.301c-22.551-7.5703-44.094-17.348-64.359-29.055-20.539-11.848-39.797-25.754-57.488-41.387l-82.602 47.68c-8.5625 4.9023-19.504 1.9844-24.434-6.5469l-94.934-164.34c-4.9609-8.5742-2.0391-19.574 6.5352-24.535l82.602-47.637c-1.9141-9.3984-3.4453-18.809-4.5625-28.234-1.6445-13.902-2.5078-28.008-2.5078-42.18 0-14.129 0.86328-28.191 2.5078-42.082 1.1211-9.4375 2.6641-18.906 4.5938-28.348l-82.559-47.621c-8.5742-4.918-11.523-15.887-6.6055-24.465l94.906-164.44c4.9609-8.5742 15.961-11.496 24.535-6.5352l82.617 47.707c17.688-15.633 36.949-29.551 57.473-41.398 20.195-11.664 41.711-21.43 64.289-28.984v-95.359c0-9.9336 8.0664-18 18-18h94.906c9.9336 0 18 8.0664 18 18v135.53c0 9.9336-8.0664 18-18 18-9.9336 0-18-8.0664-18-18v-117.52h-58.906v90.496c-0.070313 7.7812-5.1602 14.953-13.012 17.219-24.363 7.1289-47.609 17.18-69.277 29.691-21.84 12.613-42.066 27.766-60.207 45-5.5977 5.7383-14.586 7.1875-21.84 2.9922l-78.465-45.312-76.977 133.3 77.629 44.789c7.2422 3.6719 11.281 11.977 9.2969 20.211-2.8789 11.906-5.1445 24.391-6.6758 37.277-1.4609 12.301-2.2266 24.961-2.2266 37.855 0 12.941 0.76562 25.641 2.2266 37.957 1.5156 12.855 3.7695 25.285 6.6484 37.164 1.8008 7.5547-1.4453 15.703-8.5039 19.758l-78.395 45.254 76.988 133.31 77.543-44.758c6.8164-4.4922 16.074-3.8711 22.223 2 18.254 17.418 38.637 32.711 60.66 45.426 21.262 12.289 44.121 22.223 68.117 29.367 8.1367 1.7305 14.246 8.957 14.246 17.602v108.45zm56.566 71.137c-9.9336 0-18-8.0664-18-18s8.0664-18 18-18h210.97c9.9336 0 18 8.0664 18 18s-8.0664 18-18 18zm-69.734-495.07c0 9.9336-8.0664 18-18 18s-18-8.0664-18-18c0-57.77 23.473-110.16 61.383-148.1 39.418-39.418 92.395-61.457 148.17-61.457 9.9336 0 18 8.0664 18 18 0 9.9336-8.0664 18-18 18-47.961 0-91.363 19.418-122.71 50.77-31.422 31.422-50.84 74.82-50.84 122.79zm260.96 541.14h-171.48c1.0781 10.488 4.0391 20.621 8.6758 29.879 7.0156 14.047 17.902 26.164 31.777 34.738 13.789 8.5195 29.523 12.785 45.285 12.785 15.773 0 31.508-4.2656 45.297-12.785 13.875-8.5742 24.762-20.691 31.777-34.738 4.6328-9.2539 7.5977-19.391 8.6758-29.879zm-189.44-36h207.4c9.1992 0.070312 17.051 7.1289 17.859 16.457 2.0547 22.961-2.4961 45.566-12.43 65.438-9.9492 19.914-25.355 37.09-44.984 49.223-19.715 12.176-41.98 18.285-64.148 18.285-22.152 0-44.418-6.1094-64.133-18.285-19.629-12.133-35.035-29.309-44.984-49.223-9.707-19.375-14.246-41.359-12.57-63.723 0-10.035 7.9219-18.172 18-18.172zm103.98-778.81c72.609 0 138.39 29.453 185.97 77.031 47.578 47.578 77.031 113.36 77.031 185.97 0 111.23-39.246 180.67-77.004 247.44-32.727 57.883-64.289 113.7-64.289 194.25 0 9.9336-8.0664 18-18 18h-207.4c-9.9336 0-18-8.0664-18-18 0-80.547-31.562-136.36-64.289-194.25-37.758-66.77-77.004-136.21-77.004-247.44 0-72.609 29.453-138.39 77.031-185.97 47.578-47.578 113.34-77.031 185.95-77.031zm160.51 102.49c-41.059-41.059-97.84-66.488-160.51-66.488-62.676 0-119.44 25.426-160.5 66.488-41.059 41.059-66.488 97.84-66.488 160.51 0 102 36.793 167.09 72.215 229.72 32.754 57.941 64.434 114 68.613 193.96h172.33c4.1797-79.965 35.859-136.02 68.613-193.96 35.418-62.633 72.215-127.71 72.215-229.72 0-62.676-25.426-119.45-66.488-160.51zm-174.09 753.98c-9.9336 0-18-8.0664-18-18s8.0664-18 18-18h67.691c9.9336 0 18 8.0664 18 18s-8.0664 18-18 18z" fill="#45dee0"/>
</svg>
